HIERARCHY
ROOT Hips
{
    OFFSET 0.000000 0.000000 0.000000
    CHANNELS 6 Xposition Yposition Zposition Zrotation Xrotation Yrotation
    JOINT Spine
    {
        OFFSET 0.000000 0.070961 0.000000
        CHANNELS 3 Zrotation Xrotation Yrotation
        JOINT Spine1
        {
            OFFSET 0.000000 0.163146 0.000000
            CHANNELS 3 Zrotation Xrotation Yrotation
            JOINT Neck
            {
                OFFSET -0.000000 0.177076 -0.000000
                CHANNELS 3 Zrotation Xrotation Yrotation
                JOINT Head
                {
                    OFFSET 0.000000 0.132020 0.017784
                    CHANNELS 3 Zrotation Xrotation Yrotation
                    End Site
                    {
                        OFFSET 0.000000 0.177845 0.000000
                    }
                }
            }
            JOINT LeftShoulder
            {
                OFFSET 0.035454 0.119338 -0.003753
                CHANNELS 3 Zrotation Xrotation Yrotation
                JOINT LeftArm
                {
                    OFFSET 0.112112 -0.000000 -0.000000
                    CHANNELS 3 Zrotation Xrotation Yrotation
                    JOINT LeftForeArm
                    {
                        OFFSET 0.259410 0.000000 -0.000000
                        CHANNELS 3 Zrotation Xrotation Yrotation
                        JOINT LeftHand
                        {
                            OFFSET 0.218055 0.000000 -0.000000
                            CHANNELS 3 Zrotation Xrotation Yrotation
                            JOINT LeftHandThumb1
                            {
                                OFFSET 0.018585 -0.021119 0.029567
                                CHANNELS 3 Zrotation Xrotation Yrotation
                                JOINT LeftHandThumb2
                                {
                                    OFFSET 0.028070 0.000000 0.000000
                                    CHANNELS 3 Zrotation Xrotation Yrotation
                                    JOINT LeftHandThumb3
                                    {
                                        OFFSET 0.023991 0.000000 -0.000000
                                        CHANNELS 3 Zrotation Xrotation Yrotation
                                        End Site
                                        {
                                            OFFSET 0.021334 0.000000 0.000000
                                        }
                                    }
                                }
                            }
                            JOINT LeftHandIndex1
                            {
                                OFFSET 0.076029 -0.000000 0.029567
                                CHANNELS 3 Zrotation Xrotation Yrotation
                                JOINT LeftHandIndex2
                                {
                                    OFFSET 0.042238 -0.000000 0.000000
                                    CHANNELS 3 Zrotation Xrotation Yrotation
                                    JOINT LeftHandIndex3
                                    {
                                        OFFSET 0.021119 -0.000000 0.000000
                                        CHANNELS 3 Zrotation Xrotation Yrotation
                                        End Site
                                        {
                                            OFFSET 0.018780 0.000000 0.000000
                                        }
                                    }
                                }
                            }
                            JOINT LeftHandMiddle1
                            {
                                OFFSET 0.076029 0.000000 0.009799
                                CHANNELS 3 Zrotation Xrotation Yrotation
                                JOINT LeftHandMiddle2
                                {
                                    OFFSET 0.046462 0.000000 0.000000
                                    CHANNELS 3 Zrotation Xrotation Yrotation
                                    JOINT LeftHandMiddle3
                                    {
                                        OFFSET 0.025343 0.000000 0.000000
                                        CHANNELS 3 Zrotation Xrotation Yrotation
                                        End Site
                                        {
                                            OFFSET 0.022536 0.000000 0.000000
                                        }
                                    }
                                }
                            }
                            JOINT LeftHandRing1
                            {
                                OFFSET 0.071805 0.000000 -0.009799
                                CHANNELS 3 Zrotation Xrotation Yrotation
                                JOINT LeftHandRing2
                                {
                                    OFFSET 0.042238 -0.000000 0.000000
                                    CHANNELS 3 Zrotation Xrotation Yrotation
                                    JOINT LeftHandRing3
                                    {
                                        OFFSET 0.021119 -0.000000 0.000000
                                        CHANNELS 3 Zrotation Xrotation Yrotation
                                        End Site
                                        {
                                            OFFSET 0.018780 0.000000 0.000000
                                        }
                                    }
                                }
                            }
                            JOINT LeftHandPinky1
                            {
                                OFFSET 0.067581 -0.000000 -0.029567
                                CHANNELS 3 Zrotation Xrotation Yrotation
                                JOINT LeftHandPinky2
                                {
                                    OFFSET 0.033790 0.000000 -0.000000
                                    CHANNELS 3 Zrotation Xrotation Yrotation
                                    JOINT LeftHandPinky3
                                    {
                                        OFFSET 0.016895 0.000000 -0.000000
                                        CHANNELS 3 Zrotation Xrotation Yrotation
                                        End Site
                                        {
                                            OFFSET 0.015024 0.000000 0.000000
                                        }
                                    }
                                }
                            }
                        }
                    }
                }
            }
            JOINT RightShoulder
            {
                OFFSET -0.035454 0.119338 -0.003753
                CHANNELS 3 Zrotation Xrotation Yrotation
                JOINT RightArm
                {
                    OFFSET -0.112112 0.000000 0.000000
                    CHANNELS 3 Zrotation Xrotation Yrotation
                    JOINT RightForeArm
                    {
                        OFFSET -0.259410 0.000000 0.000000
                        CHANNELS 3 Zrotation Xrotation Yrotation
                        JOINT RightHand
                        {
                            OFFSET -0.218055 0.000000 0.000000
                            CHANNELS 3 Zrotation Xrotation Yrotation
                            JOINT RightHandThumb1
                            {
                                OFFSET -0.018585 -0.021119 0.029567
                                CHANNELS 3 Zrotation Xrotation Yrotation
                                JOINT RightHandThumb2
                                {
                                    OFFSET -0.028070 0.000000 0.000000
                                    CHANNELS 3 Zrotation Xrotation Yrotation
                                    JOINT RightHandThumb3
                                    {
                                        OFFSET -0.023991 -0.000000 -0.000000
                                        CHANNELS 3 Zrotation Xrotation Yrotation
                                        End Site
                                        {
                                            OFFSET -0.021334 0.000000 0.000000
                                        }
                                    }
                                }
                            }
                            JOINT RightHandIndex1
                            {
                                OFFSET -0.076029 -0.000000 0.029567
                                CHANNELS 3 Zrotation Xrotation Yrotation
                                JOINT RightHandIndex2
                                {
                                    OFFSET -0.042238 0.000000 0.000000
                                    CHANNELS 3 Zrotation Xrotation Yrotation
                                    JOINT RightHandIndex3
                                    {
                                        OFFSET -0.021119 -0.000000 0.000000
                                        CHANNELS 3 Zrotation Xrotation Yrotation
                                        End Site
                                        {
                                            OFFSET -0.018780 0.000000 0.000000
                                        }
                                    }
                                }
                            }
                            JOINT RightHandMiddle1
                            {
                                OFFSET -0.076029 -0.000000 0.009799
                                CHANNELS 3 Zrotation Xrotation Yrotation
                                JOINT RightHandMiddle2
                                {
                                    OFFSET -0.046462 -0.000000 0.000000
                                    CHANNELS 3 Zrotation Xrotation Yrotation
                                    JOINT RightHandMiddle3
                                    {
                                        OFFSET -0.025343 0.000000 0.000000
                                        CHANNELS 3 Zrotation Xrotation Yrotation
                                        End Site
                                        {
                                            OFFSET -0.022536 0.000000 0.000000
                                        }
                                    }
                                }
                            }
                            JOINT RightHandRing1
                            {
                                OFFSET -0.071805 0.000000 -0.009799
                                CHANNELS 3 Zrotation Xrotation Yrotation
                                JOINT RightHandRing2
                                {
                                    OFFSET -0.042238 0.000000 0.000000
                                    CHANNELS 3 Zrotation Xrotation Yrotation
                                    JOINT RightHandRing3
                                    {
                                        OFFSET -0.021119 -0.000000 0.000000
                                        CHANNELS 3 Zrotation Xrotation Yrotation
                                        End Site
                                        {
                                            OFFSET -0.018780 0.000000 0.000000
                                        }
                                    }
                                }
                            }
                            JOINT RightHandPinky1
                            {
                                OFFSET -0.067581 -0.000000 -0.029567
                                CHANNELS 3 Zrotation Xrotation Yrotation
                                JOINT RightHandPinky2
                                {
                                    OFFSET -0.033791 0.000000 0.000000
                                    CHANNELS 3 Zrotation Xrotation Yrotation
                                    JOINT RightHandPinky3
                                    {
                                        OFFSET -0.016895 -0.000000 0.000000
                                        CHANNELS 3 Zrotation Xrotation Yrotation
                                        End Site
                                        {
                                            OFFSET -0.015024 0.000000 0.000000
                                        }
                                    }
                                }
                            }
                        }
                    }
                }
            }
        }
    }
    JOINT LeftUpLeg
    {
        OFFSET 0.088922 -0.000000 0.000000
        CHANNELS 3 Zrotation Xrotation Yrotation
        JOINT LeftLeg
        {
            OFFSET 0.000000 -0.441738 -0.000000
            CHANNELS 3 Zrotation Xrotation Yrotation
            JOINT LeftFoot
            {
                OFFSET 0.000000 -0.332005 0.000000
                CHANNELS 3 Zrotation Xrotation Yrotation
                JOINT LeftToeBase
                {
                    OFFSET 0.000000 -0.057800 0.133384
                    CHANNELS 3 Zrotation Xrotation Yrotation
                    End Site
                    {
                        OFFSET 0.000000 0.000000 0.035569
                    }
                }
            }
        }
    }
    JOINT RightUpLeg
    {
        OFFSET -0.088922 0.000000 -0.000000
        CHANNELS 3 Zrotation Xrotation Yrotation
        JOINT RightLeg
        {
            OFFSET 0.000000 -0.441738 0.000000
            CHANNELS 3 Zrotation Xrotation Yrotation
            JOINT RightFoot
            {
                OFFSET -0.000000 -0.332005 0.000000
                CHANNELS 3 Zrotation Xrotation Yrotation
                JOINT RightToeBase
                {
                    OFFSET 0.000000 -0.057800 0.133384
                    CHANNELS 3 Zrotation Xrotation Yrotation
                    End Site
                    {
                        OFFSET 0.000000 0.000000 0.035569
                    }
                }
            }
        }
    }
}
MOTION
Frames:    4
Frame Time:    0.008333
-0.077921    0.980659    0.771929    -26.983263    5.032701    102.776672    -0.161068    4.777046    27.964283    -0.805306    4.776597    28.017927    -6.548200    3.811918    18.128683    -6.548200    3.811918    18.128683    4.218670    1.660513    4.470499    -11.145347    -12.827024    -12.201365    12.442397    13.279419    -43.847454    -82.424294    27.166752    -3.292502    47.448189    38.866413    -34.355038    -35.000015    -0.000006    -0.000005    -0.000000    0.000000    -0.000000    -0.000004    9.999991    0.000003    -0.000000    0.000000    -0.000000    -0.000000    0.000000    -0.000000    -0.000000    0.000000    -0.000000    -0.000000    0.000000    -0.000000    -0.000000    0.000000    -0.000000    -0.000000    0.000000    -0.000000    -0.000000    0.000000    -0.000000    -0.000000    0.000000    -0.000000    -0.000012    -9.999996    0.000002    -0.000000    0.000000    -0.000000    -0.000000    0.000000    -0.000000    -17.582134    -10.147311    8.025510    1.780425    -6.741310    38.580925    -0.713856    0.461256    57.133175    11.606020    4.989180    22.911198    -47.448204    38.866402    34.355049    35.000015    0.000002    0.000003    -0.000000    0.000000    -0.000000    0.000000    9.999993    -0.000004    -0.000000    0.000000    -0.000000    -0.000000    0.000000    -0.000000    -0.000000    0.000000    -0.000000    -0.000000    0.000000    -0.000000    -0.000000    0.000000    -0.000000    -0.000000    0.000000    -0.000000    -0.000000    0.000000    -0.000000    -0.000000    0.000000    -0.000000    0.000001    -9.999993    0.000008    -0.000000    0.000000    -0.000000    -0.000000    0.000000    -0.000000    -12.275190    -33.520145    2.477206    -0.000000    9.768076    0.000003    -57.047787    9.979527    32.303951    -0.000003    12.530353    -0.000005    -3.886628    -4.676054    -0.667049    0.000002    1.171360    -0.000003    35.726330    8.273866    -55.540405    0.000000    2.426093    -0.000003    
-0.063956    0.999064    0.775833    -28.594692    5.018746    110.922539    -0.308002    4.341079    28.747229    -1.540028    4.339578    28.840481    -6.870232    4.761978    19.185707    -6.870232    4.761977    19.185709    3.599370    1.702746    3.503592    -10.825100    -12.336395    -14.068353    12.958873    13.141365    -45.345406    -78.660774    28.719296    -5.317441    47.448181    38.866386    -34.355030    -35.000015    0.000005    0.000008    -0.000000    0.000000    -0.000000    -0.000001    9.999987    -0.000004    -0.000000    0.000000    -0.000000    -0.000000    0.000000    -0.000000    -0.000000    0.000000    -0.000000    -0.000000    0.000000    -0.000000    -0.000000    0.000000    -0.000000    -0.000000    0.000000    -0.000000    -0.000000    0.000000    -0.000000    -0.000000    0.000000    -0.000000    0.000001    -9.999992    -0.000003    -0.000000    0.000000    -0.000000    -0.000000    0.000000    -0.000000    -18.698736    -10.029792    8.293489    1.034290    -6.850452    39.488884    -0.912972    0.546518    59.097202    11.524076    4.898983    22.677235    -47.448208    38.866402    34.355042    35.000023    -0.000004    0.000008    -0.000000    0.000000    -0.000000    0.000001    9.999994    -0.000010    -0.000000    0.000000    -0.000000    -0.000000    0.000000    -0.000000    -0.000000    0.000000    -0.000000    -0.000000    0.000000    -0.000000    -0.000000    0.000000    -0.000000    -0.000000    0.000000    -0.000000    -0.000000    0.000000    -0.000000    -0.000000    0.000000    -0.000000    -0.000003    -9.999993    -0.000004    -0.000000    0.000000    -0.000000    -0.000000    0.000000    -0.000000    -15.194936    -31.745237    0.594829    -0.000000    7.175646    0.000007    -54.675400    8.332941    35.231384    -0.000000    12.471251    -0.000000    -3.188994    -3.432846    0.282342    0.000000    2.318457    -0.000007    40.380863    7.666147    -54.891445    -0.000003    2.389434    0.000003    
-0.051361    1.016545    0.778746    -30.283962    4.701672    119.669273    -0.441174    4.071807    29.217651    -2.205847    4.068923    29.342922    -7.499372    5.653054    19.822384    -7.499368    5.653053    19.822384    2.756120    1.697289    2.401620    -10.592318    -12.138236    -16.135706    13.825665    13.459404    -46.596004    -74.594925    29.507343    -7.531231    47.448158    38.866394    -34.355003    -35.000015    0.000010    0.000002    -0.000000    0.000000    -0.000000    -0.000018    9.999979    0.000007    -0.000000    0.000000    -0.000000    -0.000000    0.000000    -0.000000    -0.000000    0.000000    -0.000000    -0.000000    0.000000    -0.000000    -0.000000    0.000000    -0.000000    -0.000000    0.000000    -0.000000    -0.000000    0.000000    -0.000000    -0.000000    0.000000    -0.000000    -0.000003    -9.999995    -0.000000    -0.000000    0.000000    -0.000000    -0.000000    0.000000    -0.000000    -20.037760    -9.896461    8.580239    0.022104    -7.006290    40.151020    -1.071749    0.592689    61.060204    11.339429    4.817111    22.664339    -47.448200    38.866386    34.355042    35.000023    0.000001    0.000003    -0.000000    0.000000    -0.000000    -0.000001    9.999993    0.000006    -0.000000    0.000000    -0.000000    -0.000000    0.000000    -0.000000    -0.000000    0.000000    -0.000000    -0.000000    0.000000    -0.000000    -0.000000    0.000000    -0.000000    -0.000000    0.000000    -0.000000    -0.000000    0.000000    -0.000000    -0.000000    0.000000    -0.000000    0.000002    -9.999992    0.000004    -0.000000    0.000000    -0.000000    -0.000000    0.000000    -0.000000    -17.568884    -30.833147    -1.521031    -0.000000    7.343786    -0.000002    -51.223068    7.168046    34.273659    0.000001    11.213129    0.000002    -1.979151    -2.800530    1.067529    -0.000000    4.472209    0.000001    42.458385    9.399083    -51.180092    0.000002    2.353317    -0.000003    
-0.039206    1.033280    0.783073    -31.893452    3.901451    128.573547    -0.564879    3.991859    29.572004    -2.824383    3.987213    29.729218    -8.273067    6.522568    20.396591    -8.273071    6.522567    20.396589    1.723111    1.386104    1.147531    -10.666729    -12.391786    -18.524712    14.762704    14.003863    -47.438602    -70.293694    29.573282    -9.813065    47.448215    38.866398    -34.355038    -35.000023    0.000001    -0.000002    -0.000000    0.000000    -0.000000    -0.000004    9.999994    0.000002    -0.000000    0.000000    -0.000000    -0.000000    0.000000    -0.000000    -0.000000    0.000000    -0.000000    -0.000000    0.000000    -0.000000    -0.000000    0.000000    -0.000000    -0.000000    0.000000    -0.000000    -0.000000    0.000000    -0.000000    -0.000000    0.000000    -0.000000    0.000000    -9.999992    0.000003    -0.000000    0.000000    -0.000000    -0.000000    0.000000    -0.000000    -21.327576    -9.927403    9.012303    -0.965730    -7.438025    40.637707    -1.264838    0.647434    62.897701    11.033602    4.717415    22.800377    -47.448196    38.866394    34.355045    35.000015    -0.000005    -0.000000    -0.000000    0.000000    -0.000000    0.000000    9.999998    -0.000003    -0.000000    0.000000    -0.000000    -0.000000    0.000000    -0.000000    -0.000000    0.000000    -0.000000    -0.000000    0.000000    -0.000000    -0.000000    0.000000    -0.000000    -0.000000    0.000000    -0.000000    -0.000000    0.000000    -0.000000    -0.000000    0.000000    -0.000000    -0.000001    -9.999993    -0.000004    -0.000000    0.000000    -0.000000    -0.000000    0.000000    -0.000000    -19.295761    -31.213196    -3.709612    -0.000001    10.562748    0.000007    -48.640354    6.521110    31.693474    0.000003    8.968216    0.000003    -0.268246    -2.590944    0.720465    -0.000000    6.521009    0.000000    42.203259    12.637416    -44.645756    -0.000007    2.317766    0.000004    
